# xmcd
#
# Track frame offsets:
#	150
#	19984
#	38001
#	57142
#	75234
#	94617
#	111043
#	130349
#	152402
#	167477
#	186583
#	204457
#	227889
#	248048
#	265888
#	300547
#
# Disc length: 4019 seconds
#
# Revision: 1
# Processed by: cddbd v1.5.2PL0 Copyright (c) Steve Scherf et al.
# Submitted via: audiograbber 1.83.01
#
DISCID=c40fb110
DTITLE=COUNTRY HITS VOL 160 - SC8816
DYEAR=1900
DGENRE=
TTITLE0=TRITT, TRAVIS - COUNTRY AIN'T COUNTRY
TTITLE1=KEITH, TOBY - ROCK YOU BABY
TTITLE2=RIMES, LEANN - SUDDENLY
TTITLE3=CASH, JOHNNY - HURT
TTITLE4=CHESNEY, KENNY - BIG STAR
TTITLE5=VASSAR, PHIL - THIS IS GOD
TTITLE6=MESSINA, JO DEE - WAS THAT MY LIFE
TTITLE7=WILLS, MARK - WHEN YOU THNK OF ME
TTITLE8=FASCAL FLATTS - LOVE YOU OUT LOUD
TTITLE9=HOLY, STEVE - ROCK A BYE HEART
TTITLE10=WAYNE, JIMMY - STAY GONE
TTITLE11=KID ROCK and SHERYL CROW - PICTURE
TTITLE12=BATES, JEFF - THE LOVE SONG
TTITLE13=COFFEY, KELLIE - WHATEVER IT TAKES
TTITLE14=WARINER, STEVE - SNOWFALL ON THE SAND
TTITLE15=DATA TRACK - Data Track
EXTD=
EXTT0=
EXTT1=
EXTT2=
EXTT3=
EXTT4=
EXTT5=
EXTT6=
EXTT7=
EXTT8=
EXTT9=
EXTT10=
EXTT11=
EXTT12=
EXTT13=
EXTT14=
EXTT15=
PLAYORDER=
